<svg viewBox="0 0 1024 1049.978" xmlns="http://www.w3.org/2000/svg"><path d="M234.666 38.168c-17.28-10.666-41.386-21.334-64-21.334-94.292 0-170.666 77.014-170.666 172.16 0 137.6 146.56 186.666 234.666 254.506v32c0 129.066 91.52 236.586 213.334 261.334v154.666c0 23.466-19.2 42.666-42.666 42.666h-117.334c-29.44 0-53.334 23.894-53.334 53.334s23.894 53.334 53.334 53.334h426.666c29.44 0 53.334-23.894 53.334-53.334s-23.894-53.332-53.334-53.332h-117.332c-23.466 0-42.666-19.2-42.666-42.666v-154.666c121.814-24.746 213.334-132.266 213.334-261.334l-0.002-32.002c88.106-67.84 234.666-116.906 234.666-254.506 0-95.146-76.372-172.16-170.666-172.16-22.634 0-46.698 10.666-64 21.334h-533.334z m192 149.332v256c0 23.466-19.2 42.666-42.666 42.666s-42.666-19.2-42.666-42.666v-256c0-23.466 19.2-42.666 42.666-42.666s42.666 19.2 42.666 42.666z m-320 1.4939999999999998c0-35.626 28.588-64.64 64-64.64 35.414 0 64 29.014 64 64.64v131.2c-61.44-38.826-128-64.662-128-131.2z m789.3340000000001 0c0 66.538-66.56 92.374-128 131.2v-131.2c0-35.626 28.586-64.64 64-64.64s64 29.014 64 64.64z"/></svg>