<svg viewBox="0 0 1024.001 1049.978" xmlns="http://www.w3.org/2000/svg"><path d="M885.276 198.092l-64.865 37.192 58.984 132.669-16.487 7.434-50.509-113.48c-10-4.045-54.604-0.666-54.604-0.666-37.172-0.512-56.647-3.942-96.346-17.812-74.915-26.132-100.074-30.346-132.843-21.796-18.594 4.864-37.126 3.994-44.108 1.741-10.593-3.533-21.245-5.601-32.173-6.4-32.783-2.406-66.93 5.955-100.324 15.222-44.526 12.349-88.68 26.732-126.789 25.943-7.245 0-13.875 6.42-14.011 13.665s6.246 13.875 13.492 14.013c45.216 0.922 91.199-14.904 134.746-26.988 39.847-11.054 77.06-18.504 107.935-11.412 0.097 0 0.252 0.512 0.346 0.512 1.932 3.123-8.526 19.942-23.351 37.366-40.319 47.38-104.374 129.649-111.568 143.391-10.478 20.019-7.196 39.378 9.859 58.465 14.039 15.713 19.65 18.033 42.897 17.992 24.369 0 32.781-4.045 94.097-45.839 67.413-45.957 90.953-48.778 120.562-48.778 42.661 0 220.022 182.323 216.908 201.513-3.931 24.223-10.507 28.605-43.243 28.713-33.939 0-43.243 4.25-43.243 19.026 0 23.91-13.363 33.341-50.681 36.326-34.408 2.765-34.82 3.174-38.573 21.622-4.765 23.444-12.237 28.088-44.627 28.196-32.601 0-43.243 4.198-43.243 16.604 0 15.196-13.842 23.183-37.016 21.274-16.96-1.382-21.606-4.198-23.005-14.008-2.21-15.544-31.21-40.305-47.222-40.305-6.7 0-17.706 3.072-24.389 8.479-14.06 11.407-26.801 33.731-28.022 46.531-1.664 17.449 0.664 22.743 15.568 35.282 20.904 17.592 37.828 18.816 56.908 3.789 9.85-7.752 22.488-11.075 42.032-11.075 32.583 0 52.776-7.946 64-25.078 6.008-9.17 15.119-12.856 36.151-14.879 29.75-2.867 45.865-13.348 57.254-37.187 5.625-11.776 11.668-14.761 35.114-17.126 31.984-3.226 42.151-9.692 51.892-33.208 6.102-14.73 9.358-16.435 31.481-16.435 19.878 0 27.781-3.226 40.822-16.256 10.407-10.409 16.259-21.898 16.259-32.174 0-21.371 96.865-88.044 96.865-88.044l7.265 16.087 78.53-46.182z m-752.779 1.3829999999999814l-132.497 300.283 70.4 18.857 6.043-13.804c0 0 29.429 28.677 46.887 46.321 28.684 28.984 31.361 33.812 28.195 49.644-2.929 14.643-0.75 20.178 13.319 34.248 17.571 17.572 38.55 17.106 56.908 11.069 8.505-2.816 14.396-7.788 23.697-25.774 12.933-25.006 11.361-44.16-5.016-60.539-11.383-11.382-18.126-13.711-34.595-11.761-11.251 1.331-24.712 4.25-29.924 6.574-7.003 3.072-17.645-3.482-40.649-25.257-17.121-16.189-46.53-52.239-46.53-52.239l114.508-258.591z m156.36800000000005 403.19999999999993c-10.017 0.563-19.502 6.175-32.173 17.3-9.15 8.033-28.131 25.626-32.519 43.069-4.127 16.41-10.108 32.271 7.784 50.161 27.463 27.464 51.213 22.277 83.546-18.335 30.377-38.149 30.11-68.915-0.519-84.756-10.221-5.284-18.328-7.885-26.119-7.439z m76.108 66.07800000000009c-10.836 0-21.333 5.591-31.654 15.913-17.492 17.49-34.422 49.039-34.422 64 0 14.915 30.383 41.687 47.395 41.687 8.319 0 22.883-5.929 32.346-13.148 9.254-7.055 33.311-46.73 34.422-54.83 3.045-22.216 1.865-25.441-14.357-39.091-11.718-9.861-22.894-14.761-33.73-14.531z"/></svg>