<svg viewBox="0 0 1024 1049.978" xmlns="http://www.w3.org/2000/svg"><path d="M875.683 286.88c42.65-26.181 70.89-61.916 84.719-107.362-41.489 22.011-82.819 37.108-124.096 45.448-37.108-39.904-84.087-60.175-140.405-60.175-55.054 0-101.557 19.318-139.51 56.902-37.741 37.846-56.795 83.823-56.795 137.504 0 16.31 2.058 30.879 6.175 43.229-162.364-5.542-296.755-72.895-402.64-202.533-17.948 31.724-26.92 64.028-26.92 97.44 0 68.671 28.978 123.093 86.831 163.05-32.99-2.798-62.074-11.137-86.831-24.809 0 49.035 14.408 89.998 43.282 126.05 28.978 35.683 66.191 58.433 111.639 68.145-16.469 4.223-33.835 6.229-51.675 6.229-16.469 0-28.134-1.371-35.049-4.382 12.141 39.958 35.049 72.367 68.145 97.176 32.99 24.915 70.943 38.059 113.593 39.218-70.307 55.161-150.698 82.449-241.648 82.449-22.274 0-38.059-0.317-47.611-2.006 89.575 58.169 189.285 87.042 299.603 87.042 112.906 0 212.668-28.608 299.499-85.826 86.831-56.902 150.911-127.104 192.082-209.765 41.383-82.554 61.863-168.487 61.863-258.221v-24.702c40.01-30.086 72.367-63.975 97.124-101.4-35.891 15.466-73.002 25.97-111.375 31.301z"/></svg>