<svg viewBox="0 0 1024 1049.978" xmlns="http://www.w3.org/2000/svg"><path d="M207.429 903.691l52-52-134.286-134.286-52 52v61.143h73.143v73.143h61.143z m298.85699999999997-530.2850000000001q0-12.571-12.571-12.571-5.714 0-9.714 4l-309.714 309.714q-4 4-4 9.714 0 12.571 12.571 12.571 5.714 0 9.714-4l309.714-309.714q4-4 4-9.714z m-30.85699999999997-109.71499999999997l237.714 237.714-475.429 475.429h-237.714v-237.714z m390.2850000000001 54.85700000000003q0 30.286-21.143 51.429l-94.857 94.857-237.714-237.714 94.857-94.286q20.571-21.714 51.429-21.714 30.286 0 52 21.714l134.286 133.714q21.143 22.286 21.143 52z"/></svg>