<svg viewBox="0 0 951 1049.978" xmlns="http://www.w3.org/2000/svg"><path d="M846.857 625.977q26.286 14.857 34 44.286t-7.143 55.714l-36.571 62.857q-14.857 26.286-44.286 34t-55.714-7.143l-152-87.429v175.429q0 29.714-21.714 51.429t-51.429 21.714h-73.143q-29.714 0-51.429-21.714t-21.714-51.429v-175.429l-152 87.429q-26.286 14.857-55.714 7.143t-44.286-34l-36.571-62.857q-14.857-26.286-7.143-55.714t34-44.286l152-88-152-88q-26.286-14.857-34-44.286t7.143-55.714l36.571-62.857q14.857-26.286 44.286-34t55.714 7.143l152 87.429v-175.429q0-29.714 21.714-51.429t51.429-21.714h73.143q29.714 0 51.429 21.714t21.714 51.429v175.429l152-87.429q26.286-14.857 55.714-7.143t44.286 34l36.571 62.857q14.857 26.286 7.143 55.714t-34 44.286l-152 88z"/></svg>