<svg viewBox="0 0 959.0928 1049.978" xmlns="http://www.w3.org/2000/svg"><path d="M73.143 976.834h164.571v-164.571h-164.571v164.571z m201.143 0h182.857v-164.571h-182.857v164.571z m-201.143-201.14299999999992h164.571v-182.857h-164.571v182.857z m201.143 0h182.857v-182.857h-182.857v182.857z m-201.143-219.428h164.571v-164.571h-164.571v164.571z m420.571 420.5709999999999h182.857v-164.571h-182.857v164.571z m-219.42800000000005-420.5709999999999h182.857v-164.571h-182.857v164.571z m438.857 420.5709999999999h164.571v-164.571h-164.571v164.571z m-219.42900000000003-201.14299999999992h182.857v-182.857h-182.857v182.857z m-201.14299999999997-493.71400000000006v-164.571q0-7.429-5.429-12.857t-12.857-5.429h-36.571q-7.429 0-12.857 5.429t-5.429 12.857v164.571q0 7.429 5.429 12.857t12.857 5.429h36.571q7.429 0 12.857-5.429t5.429-12.857z m420.572 493.71400000000006h164.571v-182.857h-164.571v182.857z m-219.42900000000003-219.428h182.857v-164.571h-182.857v164.571z m219.42900000000003 0h164.571v-164.571h-164.571v164.571z m18.285999999999945-274.28600000000006v-164.571q0-7.429-5.429-12.857t-12.857-5.429h-36.571q-7.429 0-12.857 5.429t-5.429 12.857v164.571q0 7.429 5.429 12.857t12.857 5.429h36.571q7.429 0 12.857-5.429t5.429-12.857z m219.428-36.57099999999997v731.429q0 29.714-21.714 51.429t-51.429 21.714h-804.571q-29.714 0-51.429-21.714t-21.714-51.429v-731.429q0-29.714 21.714-51.429t51.429-21.714h73.143v-54.857q0-37.714 26.857-64.571t64.571-26.857h36.571q37.714 0 64.571 26.857t26.857 64.571v54.857h219.429v-54.857q0-37.714 26.857-64.571t64.571-26.857h36.571q37.714 0 64.571 26.857t26.857 64.571v54.857h73.143q29.714 0 51.429 21.714t21.714 51.429z"/></svg>