<svg viewBox="0 0 1024.4001 1049.978" xmlns="http://www.w3.org/2000/svg"><path d="M710.0061 0.034c-0.289 0.243-0.557 0.511-0.8 0.8-1.534 0.846-2.712 2.317-3.2 4-0.143 0.791-0.143 1.609 0 2.4 0.113 0.841 0.385 1.66 0.8 2.4-0.016 0.266-0.016 0.534 0 0.8l155.2 226.401c-54.963 0.212-119.834-14.374-177.587-40.801-65.69-30.049-122.675-75.505-151.219-127.201-4.224-8.184-14.157-12.982-23.194-11.197-13.457 2.577-21.396 20.219-14.4 32 34.911 63.237 99.448 111.972 171.2 144.799s151.02 49.787 220.001 44.001c1.329 0.125 2.671 0.125 4 0l120.781 176.794c0.243 0.289 0.511 0.557 0.8 0.8 0.243 0.289 0.511 0.557 0.8 0.8 0.494 0.336 1.034 0.606 1.6 0.8 0.494 0.336 1.034 0.606 1.6 0.8 0.266 0.016 0.534 0.016 0.8 0 0.531 0.064 1.069 0.064 1.6 0 0.566-0.195 1.106-0.464 1.6-0.8 0.566-0.195 1.106-0.464 1.6-0.8 0.336-0.494 0.606-1.034 0.8-1.6 0.289-0.243 0.557-0.511 0.8-0.8 0.064-0.531 0.064-1.069 0-1.6 0.289-0.243 0.557-0.511 0.8-0.8-0.113-0.841-0.385-1.66-0.8-2.4 0.016-0.266 0.016-0.534 0-0.8-0.243-0.289-0.511-0.557-0.8-0.8l-119.936-175.181c13.981-12.614-0.855-41.052-19.2-36.8-1.848 0.155-3.724-0.116-5.6 0l-160-232.801c0.016-0.266 0.016-0.534 0-0.8-0.243-0.289-0.511-0.557-0.8-0.8-0.243-0.289-0.511-0.557-0.8-0.8-0.494-0.336-1.034-0.606-1.6-0.8-0.531-0.064-1.069-0.064-1.6 0-0.531-0.064-1.069-0.064-1.6 0-0.266-0.016-0.534-0.016-0.8 0-0.266-0.016-0.534-0.016-0.8 0z m8.781000000000063 80.79899999999999c-26.161 1.916-45.916 25.038-44.001 51.2 1.916 26.161 25.038 45.916 51.2 44.001 26.161-1.916 45.916-25.038 44.001-51.2-1.894-26.163-25.037-45.919-51.2-44.001z m-576 4.799999999999997c-5.074-0.433-10.222 0.072-15.186 0.801-19.858 2.916-36.552 15.296-48 31.199-11.451 15.903-18.639 35.372-23.201 57.6-4.014 11.459 3.914 25.549 15.795 28.06 11.878 2.514 24.835-7.155 25.805-19.261 3.671-17.884 10.212-32.448 16.801-41.6 6.587-9.149 12.616-12.631 19.2-13.599s15.928 0.026 29.599 9.6c13.672 9.566 30.259 27.428 48.799 54.4 27.364 39.813 52.833 70.825 80 88.801 13.583 8.987 28.588 14.805 44.8 13.6 16.213-1.206 31.8-10.43 42.399-24 6.912-9.011 5.018-23.501-3.994-30.413s-23.475-5.007-30.387 3.999c-5.376 6.861-8.038 7.764-11.213 8.003-3.174 0.23-8.858-1.418-17.587-7.201-17.485-11.566-41.958-38.909-68.006-76.8-20.493-29.814-40.233-50.97-59.999-64.801-14.828-10.371-30.341-17.101-45.601-18.399z m168.01299999999998 1.6000000000000085c-26.232 0-48 20.968-48 47.201s21.768 48 48 48 47.201-21.768 47.201-48-20.966-47.201-47.206-47.201z m-187.2 131.998c-10.232 1.464-18.583 11.267-18.399 21.601 0.947 110.034-43.763 175.923-99.999 239.201-7.54 8.378-6.778 22.86 1.6 30.4s22.86 6.778 30.4-1.6c51.502-57.948 96.182-127.846 106.399-225.6 33.083 27.699 67.305 59.51 79.201 82.401 3.912 7.527 5.75 13.032 5.6 16-0.154 2.968-0.264 4.045-4 7.2-7.473 6.309-35.313 15.512-87.199 16-11.31 0.21-21.41 10.69-21.2 22s10.69 21.41 22 21.2c56.013-0.527 90.796-7.146 113.6-26.399 11.402-9.627 18.502-23.804 19.2-37.601 0.696-13.796-3.477-26.619-9.6-38.4-24.493-47.127-82.309-91.092-121.6-121.6-4.419-3.681-10.327-5.453-16.013-4.833z m532.787 64.815c-114.266 16.948-206.244 107.802-240.799 203.2-3.77 10.681 2.519 23.83 13.2 27.599s23.83-2.519 27.599-13.2c27.218-75.136 100.905-148.588 188.001-169.6 10.245 63.37 35.395 137.551 88 177.6 9.006 6.702 23.298 4.606 30.001-4.4s4.606-23.298-4.4-30.001c-40.87-31.114-72.067-114.519-77.599-172.001-1.104-11.369-12.665-20.619-24-19.2z m-17.600000000000023 328.806c-4.649 0.981-8.946 3.559-12 7.2-31.772 35.963-39.954 84.401-39.199 136.801-16.928-5.302-35.103-9.815-54.4-12.8-29.765-4.604-62.815-5.202-100.8 1.6-0.799-0.046-1.601-0.046-2.4 0-53.76 5.166-92.657 13.963-120.801 27.2-28.142 13.237-47.048 33.027-51.999 56.801s3.63 46.82 16 67.999c12.37 21.18 29.783 42.263 48.799 62.4 7.749 8.168 22.232 8.549 30.4 0.8s8.549-22.232 0.8-30.4c-17.887-18.941-33.664-38.072-43.2-54.4s-12.145-29.222-10.4-37.601c1.746-8.377 7.24-16.635 28.001-26.399 9.512-4.474 33.208-6.643 48.799-10.4-2.278 4.759-5.845 9.524-7.2 14.4-6.325 22.752-1.62 45.115 8 63.201 19.241 36.173 53.814 63.181 72.801 88.801 6.702 9.006 20.994 11.102 30.001 4.4s11.102-20.994 4.4-30.001c-24.065-32.474-56.261-59.628-68.8-83.2-6.27-11.787-8.605-21.189-5.6-32 2.829-10.178 12.137-23.443 32-40 67.185-11.64 112.614 1.873 160 20 9.336 4.337 23.405-1.889 31.099-10 46.249-48.745 98.432-89.874 168.1-118.001 10.472-4.189 16.189-17.528 12-28.001s-17.528-16.189-28.001-12c-61.824 24.958-109.606 61.361-152.801 99.999 1.979-37.117 8.697-69.458 27.2-90.399 12.112-12.769-0.956-38.336-18.4-35.999-0.799-0.046-1.601-0.046-2.4 0z m13.600000000000023 194.40100000000007c-26.161 1.916-45.916 25.038-44.001 51.2s24.238 45.117 50.401 43.2c26.161-1.916 45.916-24.238 44.001-50.401-1.916-26.161-24.238-45.916-50.401-44.001z"/></svg>