<svg viewBox="0 0 1024 1049.978" xmlns="http://www.w3.org/2000/svg"><path d="M430.566 158.602c-8.438-0.717-16.981 0-25.215 1.306-32.94 4.841-60.634 25.375-79.626 51.758-18.994 26.381-30.92 58.678-38.487 95.552-6.661 19.013 6.494 42.381 26.202 46.554 19.707 4.16 41.201-11.876 42.808-31.954 6.088-29.668 16.94-53.832 27.868-69.007 10.93-15.186 20.928-20.959 31.852-22.566 10.923-1.613 26.424 0 49.103 15.926 22.68 15.872 50.196 45.504 80.955 90.245 45.394 66.051 87.644 117.494 132.71 147.313 22.533 14.904 47.421 24.558 74.319 22.559 26.895-1.997 52.754-17.303 70.336-39.816 11.466-14.94 8.305-38.961-6.635-50.429-14.94-11.466-38.966-8.302-50.432 6.638-8.889 11.382-13.311 12.879-18.58 13.271-5.268 0.435-14.698-2.33-29.197-11.948-28.997-19.182-69.604-64.548-112.804-127.401-33.994-49.454-66.742-84.554-99.533-107.494-24.594-17.211-50.332-28.372-75.645-30.525z m278.6820000000001 2.6310000000000002c-43.517 0-79.626 34.78-79.626 78.3 0 43.515 36.111 79.626 79.626 79.626s78.3-36.111 78.3-79.626c0-43.52-34.785-78.3-78.3-78.3z m-310.55400000000003 218.973c-16.974 2.406-30.828 18.691-30.523 35.837 1.571 182.533-72.599 291.84-165.891 396.8-12.508 13.901-11.243 37.924 2.654 50.432 13.897 12.511 37.921 11.244 50.429-2.634 85.435-96.131 159.555-212.078 176.507-374.246 54.879 45.947 111.649 98.724 131.384 136.696 6.49 12.485 9.539 21.619 9.29 26.542-0.256 4.918-0.438 6.707-6.636 11.94-12.397 10.468-58.583 25.738-144.655 26.542-18.762 0.435-35.515 17.733-35.169 36.495 0.34 18.765 17.734 35.517 36.495 35.169 92.918-0.896 150.618-11.853 188.449-43.794 18.916-15.972 30.694-39.485 31.852-62.377 1.155-22.881-5.767-44.15-15.925-63.698-40.63-78.18-136.543-151.114-201.72-201.72-7.308-6.054-17.11-8.993-26.542-7.964z"/></svg>