<svg viewBox="0 0 1024.0075 1049.978" xmlns="http://www.w3.org/2000/svg"><path d="M701.8825 166.282c-8.52 1.792-16.395 6.525-21.99 13.194-58.225 65.9-73.216 154.662-71.834 250.683-31.022-9.718-64.325-17.989-99.686-23.455-54.546-8.438-115.105-9.533-184.714 2.898h-4.396c-98.514 9.467-169.795 25.59-221.363 49.843-51.569 24.259-86.216 60.524-95.288 104.084-9.073 43.564 6.652 85.798 29.32 124.605 22.667 38.815 54.579 77.453 89.426 114.35 14.2 14.968 40.74 15.667 55.708 1.459 14.968-14.198 15.666-40.737 1.464-55.706-32.778-34.706-61.688-69.763-79.163-99.689-17.475-29.921-22.255-53.548-19.058-68.897 3.199-15.347 13.267-30.484 51.31-48.379 17.43-8.195 60.851-12.175 89.426-19.054-4.175 8.717-10.71 17.449-13.194 26.386-11.59 41.69-2.969 82.673 14.66 115.809 35.259 66.286 98.614 115.779 133.404 162.726 12.281 16.504 38.472 20.344 54.973 8.067 16.503-12.283 20.344-38.472 8.063-54.979-44.099-59.507-103.096-109.266-126.075-152.463-11.49-21.596-15.769-38.828-10.262-58.637 5.184-18.652 22.24-42.957 58.639-73.3 123.116-21.332 206.364 3.425 293.197 36.646 17.108 7.949 42.888-3.471 56.991-18.322 84.751-89.324 180.375-164.695 308.045-216.233 19.19-7.675 29.665-32.118 21.99-51.308s-32.12-29.668-51.31-21.993c-113.29 45.737-200.852 112.448-280.013 183.25 3.626-68.014 15.936-127.278 49.843-165.658 22.195-23.401-1.755-70.249-33.718-65.966h-4.396z m24.921999999999912 356.2489999999999c-47.941 3.517-84.142 45.88-80.63 93.821 3.514 47.939 44.416 82.675 92.357 79.165 47.941-3.523 84.142-44.419 80.63-92.36-3.514-47.939-44.416-84.142-92.357-80.627z"/></svg>