<svg viewBox="0 0 1024 1049.978" xmlns="http://www.w3.org/2000/svg"><path d="M491.52 92.042l260.992 380.698c-92.426 0.435-201.513-24.166-298.65-68.603-110.446-50.532-206.264-126.971-254.254-213.896-7.105-13.77-23.815-21.834-39.012-18.839-22.629 4.334-35.978 34.004-24.215 53.811 58.706 106.342 167.229 188.293 287.872 243.497 120.655 55.196 253.949 83.717 369.946 73.984 2.234 0.41 4.49 0.41 6.726 0l203.133 297.318c2.637 3.858 10.838 4.137 15.756 0.947 4.463-2.88 5.115-10.035 3.069-13.023l-201.789-294.605c23.51-21.21-1.437-69.028-32.287-61.883-3.108 0.41-6.262-0.435-9.417 0l-269.056-389.12c-2.731-3.973-10.044-4.631-14.923-1.51-4.535 2.908-6.407 9.905-3.902 13.558z m20.17900000000003 118.382c-43.994 3.223-77.212 42.104-73.989 86.1 3.224 43.988 42.104 77.21 86.095 73.984 43.994-3.226 77.212-42.102 73.989-86.095-3.224-43.991-42.104-77.212-86.095-73.989z m-104.92900000000003 341.683c-192.146 28.5-346.803 181.276-404.915 341.709-6.34 17.958 4.236 40.072 22.196 46.41 17.961 6.339 40.072-4.221 46.413-22.198 45.768-126.346 169.677-249.859 316.134-285.184 17.228 106.563 59.52 231.301 147.978 298.65 15.144 11.269 39.176 7.744 50.447-7.401 11.27-15.142 7.745-39.178-7.399-50.445-68.726-52.324-121.188-192.571-130.491-289.229-1.855-19.123-21.298-34.675-40.358-32.287z"/></svg>