<svg viewBox="0 0 1024.0146 1049.978" xmlns="http://www.w3.org/2000/svg"><path d="M665.1026 5.969c-11.185 0-26.823 1.69-44.095 4.198-60.477 1.024-85.96 5.197-126.188 18.765-191.421 64.553-339.871 196.101-433.915 384.655-31.312 62.787-66.924 163.876-60.042 170.752 0.611 0.614 2.121 0.819 3.753 0.512 1.632-0.512 3.73-1.229 6.098-2.355 4.736-2.304 10.454-6.098 16.418-10.793 30.003-23.598 49.895-21.514 66.145 7.04 10.82 19.016 17.015 26.353 21.579 21.576 1.825-1.894 3.635-6.006 5.16-11.725 0.762-2.867 1.583-6.042 2.345-9.851 1.158-5.791 2.52-12.099 4.691-19.236 6.513-21.412 17.235-48.215 29.084-73.646 3.95-8.479 8.075-16.84 12.196-24.863s8.113-15.401 12.196-22.518c4.084-7.112 8.361-13.947 12.196-19.702s7.412-10.598 10.789-14.541c26.324-30.756 90.455-67.973 136.038-78.807l22.517-5.161-5.16 20.639c-2.972 11.843-1.067 25.431 4.691 32.369 1.975 2.355 3.234 4.608 4.222 6.569 0.982 1.946 1.393 3.328 1.407 5.156 0.161 3.789-1.524 7.255-5.629 12.201-2.938 3.533-4.805 8.714-5.629 14.541-0.023 0 0.021 0.512 0 0.512-0.365 2.765-0.628 5.944-0.469 8.914 0.061 1.741 0.724 3.379 0.938 5.161 0.224 1.382 0.12 2.816 0.469 4.198 0.123 0.666 0.325 1.229 0.469 1.894 0.498 2.406 0.802 4.608 0.938 7.035 0.054 0.563-0.036 1.331 0 1.894 0.167 8.637-1.762 16.916-5.629 21.576-0.155 0-0.31 0.512-0.469 0.512-3.127 2.048-7.098 0.819-10.789-5.161-2.788-4.506-15.168-8.443-27.677-8.443h-22.986l5.629 108.831 28.615-2.355c14.268-1.331 21.232-1.382 24.862 1.894l1.407 26.271c-0.728 1.075-1.89 1.382-2.815 0.512-2.57-2.56-20.718 0.819-40.343 7.506l-35.652 12.196v29.558c-0.188 22.661-4.696 25.805-11.727 9.851-0.145-0.512-0.321-1.075-0.469-1.382-1.746-7.475-4.481-15.831-7.975-24.863-0.925-2.406-1.391-4.25-1.407-6.098-0.007-0.819 0.291-1.638 0.469-2.355 0.242-1.024 0.846-2.458 1.407-3.277 0.489-0.614 1.188-1.331 1.876-1.894 0.147 0 0.312-0.512 0.469-0.512 0.256 0 0.658-0.512 0.938-0.512 1.662-1.024 4.413-1.946 7.036-2.816 1.61-0.512 2.715-1.382 4.691-1.894 11.501-2.867 21.109-8.238 21.109-12.196 0-9.733-11.497-9.344-36.121 1.894-2.814 1.28-5.316 2.918-7.505 4.25-2.187 1.28-4.041 2.355-5.629 3.738-7.942 6.938-8.613 15.683-3.284 32.369 1.056 3.328 2.238 6.804 3.753 10.788 4.595 12.083 5.23 20.541 0.938 30.49-0.616 1.434-1.531 3.174-2.345 4.71-0.763 1.28-1.415 2.406-2.345 3.738-2.52 3.584-4.153 7.327-6.098 10.793-3.209 5.714-6.098 10.516-6.098 12.662 0 8.161 6.907 7.921 16.418 0.922 0.247 0 0.685-0.512 0.938-0.512 1.814-1.382 4.15-3.277 6.098-5.161 10.503-9.503 17.345-11.249 21.109-5.156 3.034 4.915 12.076 6.789 20.171 4.198 10.85-3.43 17.734 2.099 27.208 21.11 2.368 4.762 4.43 8.832 6.098 12.667 0.395 0.922 1.048 1.946 1.407 2.816 1.05 2.611 2.156 5.304 2.815 7.501 0.187 0.563 0.301 1.331 0.469 1.894 4.272 16.748-4.814 22.211-31.899 29.082-20.506 5.207-31.617 6.953-35.652 4.71-0.121-4.915 1.791-11.085 5.629-15.949 0.176 0 0.3-0.512 0.469-0.512 5.382-6.482 7.388-9.938 5.16-10.788-0.11-0.031-0.345 0.015-0.469 0-1.654-0.512-4.743 0.512-9.851 1.382-3.079 0.614-5.505 1.536-7.505 2.816-0.885 0.563-1.652 1.126-2.345 1.894-0.525 0.563-0.985 1.229-1.407 1.894-0.226 0.512-0.739 0.563-0.938 0.922-0.06 0 0.057 0.512 0 0.512-0.472 0.973-1.093 2.15-1.407 3.277-0.038 0 0.036 0.512 0 0.512-0.295 1.178-0.321 2.355-0.469 3.738-0.017 0 0.015 0.512 0 0.512-0.291 3.072-0.311 6.574 0 10.788 0.044 0.717-0.057 1.126 0 1.894 0.498 11.668-1.907 24.694-6.098 30.961-4.176 2.816-7.975 8.187-7.975 12.196 0 10.506 7.499 9.39 15.48 0.512 0.147 0 0.322-0.512 0.469-0.512 1.615-1.485 3.589-3.174 5.16-5.161l12.196-15.478-9.382 18.765c-5.059 10.394-10.094 29.307-11.727 42.214-0.363 2.867-0.306 4.966-0.469 7.506-2.111 2.662-3.284 5.791-3.284 8.443 0 3.891 0.846 6.113 3.753 6.569 0.233 0.512 0.636 0.922 0.938 0.922 1.048 0 2.865-0.87 4.691-1.382 8.872-2.714 25.635-10.967 42.219-20.644l1.407-0.922 38.466-21.11 1.407-7.035c0.175-0.512 0.848-0.717 0.938-0.922 2.378-6.2 9-9.344 15.011-7.04 4.755 1.843 7.277 6.236 7.036 11.73-1.791 2.662-3.284 5.724-3.284 8.443 0 0.922 0.204 1.741 0.469 2.355-1.488 5.166 0.301 4.813 6.567 0 0.791-0.512 1.904-1.229 2.815-1.894 0.406-0.512 0.504-0.614 0.938-0.922 0.496-0.512 0.921-0.563 1.407-0.922 1.363-1.126 2.493-1.946 3.753-2.816 0.336 0 0.614-0.512 0.938-0.512 1.3-0.819 2.679-1.434 3.753-1.894 1.325-0.563 2.472-0.973 3.284-0.922 0.735 0 1.269 0.717 1.407 1.382 1.373 6.84 4.837 19.866 7.036 27.208 0.249 0.819 0.443 0.768 0.938 0.512 0.495-0.512 1.215-1.075 1.876-2.355 1.322-2.56 2.715-7.117 4.222-12.662 1.951-7.183 6.559-13.353 12.666-19.236 3.053-2.97 6.367-5.888 10.32-8.443 11.859-7.665 27.678-13.445 45.971-16.886 6.098-1.126 12.136-2.202 18.764-2.816s13.575-0.922 20.64-0.922h46.91l13.604 30.49 13.604 30.024 2.814-26.271c3.07-29.696 7.532-32.046 22.048-12.196 2.204 3.021 3.832 4.915 5.16 6.098 0.742 0.717 1.358 1.331 1.876 1.434 0.358 0 0.676 0 0.938-0.512 0.047 0-0.044-0.512 0-0.512 0.573-0.819 0.832-2.816 0.938-5.632 0.003 0-0.002-0.512 0-0.512 0.082-3.226 0.292-7.342 0-13.138-0.2-3.994-1.084-7.936-1.876-11.725-2.073-9.928-5.827-18.156-9.851-20.639-7.963-4.915-7.852-14.925-0.471-46.915 10.503-45.496 4.328-93.01-13.604-107.889-14.968-12.421-15.06-23.926-0.471-23.926 1.063 0 1.84-0.666 2.814-0.922 4.086 1.69 9.367-3.328 12.666-15.949 0.072-0.512-0.067-0.666 0-0.922 1.102-4.71 1.521-10.061 0.938-15.949-0.056-0.563 0.072-1.28 0-1.894-0.22-2.611-0.884-5.315-1.407-7.977-0.644-3.277-1.683-6.605-2.814-9.851-0.195-0.614-0.261-1.28-0.471-1.894-1.193-3.123-2.098-5.678-3.284-8.443-0.087 0-0.379-0.512-0.471-0.512-3.166-7.306-6.665-13.332-10.32-18.294-2.12-2.867-4.082-5.775-6.567-7.977-5.757-6.359-14.615-10.168-28.615-12.196-0.898 0-1.865-0.512-2.814-0.512-2.806-0.512-6.216-0.666-9.382-0.922-7.535-0.512-16.255-0.922-26.739-0.922-7.531 0-14.778 0-21.579-0.512-16.547-0.973-30.076-2.611-35.652-5.161-0.285 0-0.238-0.512-0.469-0.512-0.593-0.512-1.034-0.614-1.407-0.922-0.089 0 0.055-0.512 0-0.512-0.982-2.611 2.943-5.576 9.851-8.443 0.641-0.031 1.193 0 1.876 0 8.001 0 12.399-1.331 13.604-4.71 12.31-3.072 26.452-4.864 36.59-3.738 4.594 0.512 8.894-2.15 13.135-6.098 0.807-0.563 1.569-1.178 2.345-1.894 0.74-0.819 1.646-1.434 2.345-2.355 0.082 0-0.082-0.512 0-0.512 7.354-8.402 12.151-21.939 10.789-33.772-0.077-1.178-0.271-2.202-0.471-3.277-0.282-1.229-0.492-2.611-0.938-3.738-0.097-0.512 0.108-0.666 0-0.922-0.353-0.922-0.923-1.536-1.407-2.355-4.48-9.057-9.838-10.701-14.073-6.569h-0.938c-6.112 2.355-21.605-6.508-34.244-19.702-19.304-20.147-20.84-25.298-10.789-31.898 0.959-0.614 1.124-1.28 1.876-1.894 1.69 0 3.255-0.512 4.222-1.382 0.894-0.87 0.44-1.997 0-3.738 0.054-0.512 0.01-0.614 0-0.922-0.036-1.178-0.477-2.304-1.407-3.738-0.054 0 0.055-0.512 0-0.512-0.762-1.126-1.989-2.406-3.284-3.738-2.388-2.867-5.281-5.965-8.913-8.914-5.821-4.71-11.211-7.854-16.887-9.851-5.558-1.946-11.651-2.611-19.233-2.355-0.132 0.005-0.336-0.005-0.469 0-5.208 0-10.825 0.819-17.826 1.894-23.515 3.533-35.182 2.253-35.182-3.738 0-4.966 0.767-9.533 1.876-9.851 1.11-0.512 85.54-3.174 187.638-6.569 162.616-5.448 190.679-8.141 224.23-22.984 16.253-7.194 28.233-14.336 36.59-22.518 3.343-3.277 6.211-6.513 8.444-10.322 1.117-1.894 1.959-4.045 2.814-6.098 0.856-2.099 1.27-4.301 1.876-6.569 4.242-15.933 2.559-37.048-3.284-68.019-11.846-62.781-5.004-85.55 29.084-98.509 28.423-10.808 18.773-19.727-43.626-41.277-34.863-12.047-56.934-16.778-105.078-18.299h-13.604c-0.711 0-1.177-0.512-1.876-0.512-16.194-2.611-29.902-4.198-37.528-4.198z m-318.67900000000003 139.29c3.895 6.559 23.378 17.132 29.862 18.186-5.192 9.999-12.385 22.927-16.887 34.714-5.548-6.072-26.161-17.818-35.183-22.518 9.76-6.047 19.108-21.914 22.207-30.382z m56.91899999999998 196.58200000000002c4.312 0 8.821 0 13.604 0.512-1.242 0.614-1.989 1.075-3.753 1.894-13.247 5.908-16.01 12.78-13.135 32.369 2.181 14.863 0.173 22.62-3.284 23.926-3.959-1.28-8.16-5.524-11.258-13.604-1.198-3.123-1.989-6.661-2.815-10.788-0.701-3.533-1.501-7.04-1.876-10.322-0.751-6.564-0.585-12.723 0-16.42 2.787-3.482 9.823-4.966 22.517-7.506z m-90.53699999999998 11.259000000000015c-8.914 0-10.916 58.511-2.345 67.082 1.192 1.178 2.338 2.099 3.284 2.816 6.623 5.207 7.505-1.434 7.505-33.777 0-19.973-4.005-36.122-8.444-36.122z m71.77199999999999 64.738c0.156 0.046 0.318-0.046 0.469 0 11.786 3.584 10.319 32.998-3.753 51.599-8.044 10.634-11.738 18.017-11.258 22.047 0.015 0-0.024 0.512 0 0.512-0.879 4.864 1.871 7.045 9.382 4.198 2.389-0.922 3.916-1.587 6.098-2.355h1.407c5.27-1.28 12.351-3.789 20.171-6.564 10.324-2.662 16.546-2.816 18.295 0 0.242 0.666 0.469 1.024 0.469 1.894 0.015 0 0 0.512 0 0.512-0.008 0 0.017 0.512 0 0.512-0.357 4.506-5.974 7.977-12.666 7.977-4.268 0-6.525 1.638-7.505 3.738-5.018 2.202-10.78 5.356-15.48 8.909l-15.48 11.259 14.542 15.949c11.734 12.969 12.89 20.393 6.098 39.875-4.581 13.143-6.35 26.02-3.753 28.616 4.384 4.403 25.001 5.637 45.033 4.198 0.633-0.046 1.245 0.041 1.876 0 14.154 0 28.667-2.611 36.121-7.506 17.747-9.498 80.686-1.894 80.686 9.851 0 4.352-6.564 5.693-14.073 2.816-3.833-1.485-12.597-1.28-23.924-0.512-0.706 0.046-1.153 0-1.876 0-5.279 0.512-11.071 0.666-17.357 1.382-0.983 0-1.82 0.512-2.815 0.512-14.127 1.741-29.249 4.454-42.688 7.506-2.669 0.614-5.032 1.229-7.505 1.894-9.37 2.253-17.336 4.915-22.048 7.035-0.102 0.046-0.37-0.046-0.469 0-1.72 0.768-2.507 1.638-3.284 2.355-0.563 0.512-1.407 0.922-1.407 1.434 0 3.482-19.482 6.098-43.157 6.098s-44.956 2.253-47.379 4.71c-2.422 2.406 5.971 22.871 18.295 45.972 16.166 30.305 21.268 49.562 18.295 68.485-2.267 14.428-8.176 26.271-12.666 26.271-4.602 0-6.257-9.994-3.753-22.518 0.497-2.509 0.861-4.915 0.938-7.501l2.815-14.546-16.887-29.082c-0.653-1.126-1.176-2.15-1.876-3.277-0.116 0-0.355-0.512-0.469-0.512-2.642-4.557-5.209-9.482-7.505-14.541-0.145-0.512-0.326-0.666-0.469-0.922-5.384-12.042-8.954-24.253-10.32-33.311-2.292-19.758 3.839-34.734 19.233-41.748 16.57-7.547 20.171-7.455 20.171 2.355 0 9.836 3.896 13.553 8.444 11.73 0.084 0.046 0.385-0.031 0.469 0 3.224 1.382 7.009-2.355 10.789-12.196 7.692-20.05 5.755-45.01-5.16-71.306-0.317-0.768-0.605-1.587-0.938-2.355-2.338-6.979-4.686-13.747-7.975-22.518l-12.196-32.364 16.418-17.828c0.567-0.614 0.877-1.28 1.407-1.894 0.491-0.512 0.905-0.512 1.407-0.922 6.517-5.407 10.179-14.249 10.32-24.863 0.002 0-0.001-0.512 0-0.512 0.154-2.56-0.113-5.345-0.469-7.977-0.135-0.922 0.106-1.485 0-2.355-0.665-3.482-0.894-6.328-0.938-8.914 0.023-1.485 0.249-2.611 0.469-3.738 0.954-5.018 3.924-7.035 9.382-7.506z m-75.52500000000003 5.159999999999968l-24.393 5.627c-39.093 9.539-47.131 22.344-32.368 50.196 8.618 16.256 11.086 33.28 7.505 55.352l-5.16 32.369 13.604-11.73c14.198-11.781 14.741-59.919 0.938-91.003-2.204-4.966-2.802-8.499-1.876-10.788 0.463-1.126 1.071-1.792 2.345-2.355s3.055-0.922 5.16-0.922c6.59 0 16.893-5.74 22.986-13.133z m258.00200000000007 27.208000000000027c-4.439 0-4.072 2.048 3.022 5.586 4.603 2.304 9.176 5.965 12.349 8.269 4.79 3.482 11.152 15.181 12.261 15.181 4.439 0-0.803-17.229-7.461-21.53s-15.732-7.506-20.171-7.506z m402.48799999999994 129.00400000000002c-20.229 0.512-42.235 5.612-69.427 15.949-23.353 8.873-56.351 15.944-73.646 15.949-15.257 0-27.204 2.611-40.812 10.317-2.722 1.536-5.526 3.686-8.444 5.632-5.837 3.942-12.083 8.668-19.233 14.541-5.067 4.147-10.564 8.366-16.418 12.667-17.564 12.902-37.009 25.4-48.786 30.961-20.689 9.759-24.363 13.655-12.666 14.07 8.878 0.512 36.019-8.515 60.042-19.702 24.026-11.182 47.711-18.883 52.541-16.886 5.002 2.048 3.891 3.84-2.345 4.198-14.798 0.87-73.646 48.563-73.646 59.571 0 0.614 0.21 1.075 0.471 1.434 0.256 0.512 0.451 0.512 0.938 0.512 2.928 0.512 9.898-3.789 17.826-11.259 10.57-9.933 40.309-23.081 66.145-29.087 25.192-5.857 41.355-12.314 52.541-21.576 1.864-1.536 3.561-3.482 5.16-5.161 1.598-1.69 3.322-3.277 4.691-5.161 20.333-27.914 81.725-55.235 124.308-55.352 37.054 0 45.705-9.042 16.418-16.891-12.001-3.226-23.514-4.864-35.652-4.71z m-160.42999999999995 48.31200000000001c12.255 0 9.239 3.482-10.789 12.201-34.214 14.853-41.708 14.756-21.579-0.512 8.617-6.518 23.228-11.899 32.368-11.725z m-191.39 24.396999999999935c-3.495 0.666-5.503 15.882-5.629 45.972-0.102 24.136 1.56 45.03 4.222 53.944 0.445 1.485 0.922 2.509 1.407 3.277s0.89 1.434 1.407 1.434c12.256 0 18.095-29.568 12.196-62.392-5.223-29.066-10.109-42.88-13.604-42.214z m-352.29200000000003 56.28899999999999c-8.878 0-18.366 3.533-21.109 7.977-2.744 4.454 2.38 7.972 11.258 7.972s18.366-3.533 21.109-7.972c2.744-4.454-2.38-7.977-11.258-7.977z m500.99699999999996 24.397000000000048c-9.01 0.512-17.932 1.536-25.8 2.816-3.934 0.666-7.279 1.485-10.789 2.355-17.55 4.198-29.553 10.542-29.553 19.236 0 4.198 3.254 6.098 8.444 5.161 1.73-0.512 3.465-0.973 5.629-1.894 53.181-22.528 148.572-14.203 178.258 15.483 16.29 16.287 18.243 16.225 12.196 0.512-2.628-6.845-18.619-19.456-35.652-28.145-24.666-12.585-66.693-17.418-102.733-15.483z m4.691000000000031 24.85699999999997c-9.907 0-18.866 0.614-25.8 2.355-2.7 0.666-5.293 1.28-7.505 2.355-15.49 7.455-18.6 23.173-3.283 29.082 5.549 2.15-1.522 8.284-15.949 13.604-4.457 1.638-8.456 3.584-11.727 5.161-3.272 1.587-5.875 2.765-7.975 4.198-12.598 8.755-3.977 14.93 23.924 10.793 22.517-3.328 36.402-0.512 54.415 11.725 13.317 9.047 25.41 16.389 27.208 16.42 0.543 0.01 1.199 0 1.407 0 0.21 0 0.092-0.973 0-1.382-0.184-0.87-0.689-1.741-1.876-3.277-4.751-6.195-16.525-17.116-26.739-24.392-5.107-3.635-9.843-6.461-13.135-7.506-2.494-0.819-4.721-1.434-6.567-2.355s-3.489-1.843-4.691-2.816c-6.011-4.915-3.796-10.429 6.098-14.541 1.979-0.819 3.961-1.69 6.567-2.355 10.374-2.714 31.996 4.608 56.76 19.231 40.279 23.752 71.772 30.484 71.772 15.483 0-3.328-3.531-6.277-8.913-7.506-1.794-0.512-4.035-0.512-6.098-0.512-21.492 0-119.393-52.296-103.67-55.352 7.136-1.382 35.037 6.497 61.921 17.357 50.242 20.291 67.825 15.647 24.862-6.569-22.308-11.535-61.281-19.011-91.003-19.231z m-270.66900000000004 72.71500000000003c-1.367 0-1.876 2.304-1.876 5.627 0 5.325-8.761 9.38-19.702 9.38-11.624 0-22.125 6.589-27.677 14.546-1.388 1.997-2.053 3.942-2.815 6.098-2.284 6.395-1.851 13.158 3.284 18.294 10.284 10.286-3.974 14.28-78.341 22.047-63.78 6.661-84.439 12.012-84.439 21.581 0 15.626 285.855-22.415 324.613-43.156 20.765-11.116 13.613-16.614-8.913-11.259-3.218 0.768-6.972 2.048-10.789 3.277-14.725 4.71-44.906 10.732-67.548 13.604-20.995 2.662-32.5 3.123-38.935 0.512-1.287-0.512-2.337-1.126-3.284-1.894-1.893-1.536-3.205-3.43-4.222-6.098-3.48-9.068-0.173-13.133 10.32-13.133 17.723 0 28.84-23.229 16.887-35.185-2.867-2.867-5.2-4.454-6.567-4.198z m246.743 7.505999999999972c-4.091-0.046-6.567 2.304-6.567 7.035 0 4.096 6.305 9.062 14.073 10.788 19.171 4.25 24.35-1.178 9.851-10.322-7.614-4.813-13.265-7.455-17.357-7.501z m-404.36199999999997 31.897000000000048c-18.398-0.512-48.746 5.12-65.203 15.012-13.841 8.335-38.707 17.679-55.352 20.639-16.647 2.97-30.491 8.899-30.491 13.133 0 4.25 2.769 7.706 6.098 7.506 15.361-0.922 80.819-21.642 96.635-30.49 9.696-5.427 26.4-9.851 37.528-9.851s22.588-3.533 25.331-7.977c3.316-5.366-3.503-7.685-14.542-7.972z m402.48799999999994 2.8159999999999172c-3.394 0.512-7.713 1.229-13.604 2.355-36.835 6.994-49.383 13.814-106.957 60.513-20.425 16.568-42.022 33.254-55.352 42.214-4.444 2.97-8.101 5.018-10.32 6.103-2.22 1.075-3.522 1.382-4.222 1.382-2.1 0.046 2.209-4.147 12.196-11.725 42.057-31.923 105.257-94.111 100.388-98.98-2.572-2.56-34.927 17.603-71.772 45.03l-67.082 49.725-93.353-7.972c-51.272-4.454-101.391-6.185-111.647-4.198-36.25 6.927-17.684 15.442 44.095 20.639 34.403 2.918 87.608 7.424 118.682 10.322l56.76 5.627-40.343 18.299c-46.448 21.1-33.559 24.525 25.331 7.035 6.528-1.946 13.684-3.277 22.048-4.71 25.09-4.198 58.383-6.057 96.164-5.161 51.226 1.229 80.993-1.229 87.25-7.506 7.293-7.291-4.803-8.735-52.07-5.161-39.819 3.021-61.921 1.587-61.921-3.738 0-9.784 26.579-17.761 60.513-18.294l24.393-0.512-20.171-16.42c-17.516-14.597-20.721-15.078-22.986-3.738-1.435 7.173-9.167 12.667-17.357 12.667s-21.422 2.099-29.553 4.71c-8.132 2.56 3.136-11.658 25.331-31.898 22.195-20.244 42.413-36.972 45.033-37.059 2.62 0 14.463 13.425 26.27 30.019 10.331 14.52 19.181 23.788 21.109 22.989 0.276 0 0.481-0.512 0.471-0.922-0.097-4.403-7.268-17.044-15.949-28.145-7.751-9.907-12.833-16.676-14.542-21.576-0.57-1.638-0.582-3.021-0.471-4.198 0.451-4.762 6.245-6.569 17.826-6.569 10.554 0 24.029-5.069 29.553-11.725 6.522-7.859 6.429-10.516-3.753-9.385z m191.39100000000008 25.33400000000006l-16.887 15.012c-9.359 8.305-22.729 12.938-29.553 10.317-7.933-3.021-12.32-0.819-12.196 3.738 0.025 0.922 0.056 2.202 0.471 3.277 0.83 2.15 2.631 4.506 5.16 7.035 3.098 3.123 10.744 3.789 16.887 1.382 6.144-2.355 12.372-4.198 14.073-4.198s7.425-8.305 12.666-18.294z m-127.596 12.66700000000003c-2.776 0-7.607 1.382-15.011 4.198-7.022 2.714-13.135 8.233-13.135 12.196 0 11.167 13.258 8.73 24.393-4.71 6.816-8.212 8.379-11.94 3.753-11.725z m-12.666000000000054 74.58299999999997c-10.785 0.512-22.813 7.992-18.764 14.546 5.846 9.457 25.517 9.093 31.43-0.512 2.554-4.147 1.296-9.656-2.814-12.196-2.632-1.638-6.256-2.048-9.851-1.894z"/></svg>