<svg viewBox="0 0 1024.019 1049.978" xmlns="http://www.w3.org/2000/svg"><path d="M172.052 327.648v0.256c-96.492 5.249-172.047 88.632-172.047 187.597 0 99.809 76.892 183.885 174.551 187.848v1.254h691.461v-1.254c16.447-0.614 32.287-3.405 47.4-8.276h-677.632c9.547-3.072 18.786-6.973 27.587-11.537h677.632c5.64-2.924 11.02-6.048 16.301-9.53h-677.632c5.313-3.502 10.392-7.268 15.299-11.286h677.632c3.784-3.098 7.517-6.395 11.035-9.782h-677.632c3.292-3.169 6.484-6.377 9.53-9.781h677.632c0.589-0.65 1.183-1.347 1.756-2.007 2.191-2.376 4.127-4.987 5.768-7.775h-677.376c2.299-3.656 4.081-7.636 5.266-11.788h677.376c0.855-3.195 1.357-6.479 1.505-9.781h-677.376c0.205-4.639-0.307-9.308-1.505-13.794h486.047c-3.41-2.227-6.616-4.664-9.781-7.273l5.018-2.504h-485.038c-2.294-4.562-5.361-8.735-9.029-12.289h519.168l19.813-9.781h-555.264c-9.58-3.308-20.265-3.308-29.845 0h-92.544l22.822-11.286h677.647l20.064-9.781h-677.641l26.835-13.292h677.647l19.813-9.781h-677.647l25.581-12.539h677.683l19.312-9.53h-206.909l-11.286 5.517c0.205-1.894 0.461-3.661 0.753-5.517h-460.211l12.791-6.27c3.123-1.5 6.073-3.354 8.778-5.518h440.904c0.911-3.395 2.038-6.561 3.256-9.781h-435.384c2.181-3.185 3.953-6.651 5.267-10.282h434.632c1.751-3.41 3.917-6.653 6.019-9.781h-438.139c0.527-4.588 0.358-9.257-0.512-13.794h449.684c3.615-3.651 7.394-6.832 11.537-9.781h-463.974c-0.256-0.512-0.512-1.009-0.753-1.505-1.347-2.842-2.78-5.513-4.265-8.276h487.045c9.679-3.855 20.113-6.019 31.098-6.019 10.852 0 21.217 2.212 30.848 6.019h128.41c-1.766-3.297-3.558-6.602-5.517-9.781h-677.632c-2.458-3.983-5.033-8.009-7.775-11.788h677.683c-2.355-3.246-4.721-6.445-7.273-9.53h-677.632c-4.065-4.91-8.254-9.581-12.791-14.045h677.376c-3.343-3.287-6.702-6.503-10.282-9.53h-677.632c-6.011-5.079-12.44-9.771-19.06-14.044h677.632c-5.51-3.553-11.169-6.832-17.054-9.782h-677.683c-6.961-3.492-14.148-6.459-21.569-9.029h677.632c-16.933-5.864-34.957-9.097-53.668-9.53v-0.256h-691.461z m-21.31699999999998 97.31099999999998h61.947c6.413 2.534 12.403 5.869 18.057 9.781h-97.812c5.543-3.942 11.479-7.258 17.807-9.781z m757.657 9.781000000000006c0.891 0.62 1.889 1.111 2.755 1.756l-16.302 8.026h129.162v-9.786h-115.62z m-787.2510000000001 9.781000000000006h96.056l-28.089 13.794h-79.002c3.318-4.941 6.934-9.651 11.035-13.794z m745.6260000000001 13.793999999999983l-19.813 9.781h177.065v-9.781h-157.251z m-762.4190000000001 9.78000000000003h64.957l-20.816 10.283h-48.905c1.347-3.553 3.062-6.968 4.767-10.283z m721.7660000000001 10.282999999999959l-20.063 9.781h204.646c3.287-2.831 6.169-6.138 8.528-9.781h-193.116z m-729.8050000000001 9.781000000000006h32.101l-23.825 11.788h-10.533c0.599-3.958 1.249-8.023 2.253-11.788z m850.9440000000001 77.99800000000005c-6.125 2.043-11.807 5.402-16.551 9.781h62.449c-4.598-4.321-10.102-7.674-16.051-9.781h-29.846z m-790.0160000000001 9.780999999999949h95.805c-1.72 1.628-3.318 3.389-4.767 5.267-2.186 2.509-4.378 4.787-6.771 7.022h-109.348l25.08-12.289z m761.6510000000001 12.288999999999987c-3.86 3.61-7.928 6.935-12.289 9.782h99.564c-0.876-3.389-2.14-6.68-3.763-9.782h-83.517z m-781.721 9.782000000000039h91.791c-12.51 8.168-26.841 12.963-42.384 13.793h-8.527c-15.047-0.753-28.704-5.88-40.88-13.793z"/></svg>